<svg id="Yellow_BG" data-name="Yellow BG" xmlns="http://www.w3.org/2000/svg" xmlns:xlink="http://www.w3.org/1999/xlink" width="1280" height="400" viewBox="0 0 1280 400">
  <defs>
    <linearGradient id="linear-gradient" x1="1" y1="0.513" x2="-0.065" y2="0.506" gradientUnits="objectBoundingBox">
      <stop offset="0" stop-color="#ffcd39"/>
      <stop offset="1" stop-color="#656565"/>
    </linearGradient>
    <linearGradient id="linear-gradient-2" x1="0.5" y1="0" x2="0.5" y2="1" xlink:href="#linear-gradient"/>
  </defs>
  <rect id="BG" width="1280" height="400" fill="#fdd55c"/>
  <text id="DominoKit" transform="translate(734.686 221.49)" fill="#1f1e1c" font-size="56" font-family="Lato-Regular, Lato"><tspan x="-134.946" y="0">Domino</tspan><tspan y="0" font-family="Lato-Bold, Lato" font-weight="700">Kit</tspan></text>
  <g id="Domino" transform="translate(461.22 -48.907) rotate(45)">
    <g id="_" data-name="\" transform="translate(191.144 122.423)">
      <g id="_5-1" data-name="5-1">
        <g id="Bottom">
          <path id="BG-2" data-name="BG" d="M4,0H38.432a0,0,0,0,1,0,0V38.432a0,0,0,0,1,0,0H4a4,4,0,0,1-4-4V4A4,4,0,0,1,4,0Z" fill="#4fb6ac"/>
          <g id="_1" data-name="1" transform="translate(16.013 16.013)">
            <circle id="_1-2" data-name="1" cx="3.203" cy="3.203" r="3.203" fill="#fff"/>
          </g>
        </g>
        <g id="Top" transform="translate(38.432)">
          <rect id="BG-3" data-name="BG" width="38.432" height="38.432" fill="#1f1e1c"/>
          <g id="_5" data-name="5" transform="translate(6.405 6.405)">
            <circle id="_5-2" data-name="5" cx="3.203" cy="3.203" r="3.203" transform="translate(0 19.216)" fill="#fff"/>
            <circle id="_4" data-name="4" cx="3.203" cy="3.203" r="3.203" fill="#fff"/>
            <circle id="_3" data-name="3" cx="3.203" cy="3.203" r="3.203" transform="translate(9.608 9.608)" fill="#fff"/>
            <circle id="_2" data-name="2" cx="3.203" cy="3.203" r="3.203" transform="translate(19.216 19.216)" fill="#fff"/>
            <circle id="_1-3" data-name="1" cx="3.203" cy="3.203" r="3.203" transform="translate(19.216)" fill="#fff"/>
          </g>
          <rect id="Shadow" width="6.432" height="38.432" transform="translate(38.184 0)" opacity="0.32" fill="url(#linear-gradient)"/>
        </g>
      </g>
    </g>
    <g id="_2-2" data-name="/" transform="translate(191.11 84)">
      <g id="_4-1" data-name="4-1" transform="translate(0 0)">
        <g id="Bottom-2" data-name="Bottom" transform="translate(0 38.432)">
          <rect id="BG-4" data-name="BG" width="38.432" height="38.432" fill="#14c397"/>
          <g id="_1-4" data-name="1" transform="translate(16.013 16.013)">
            <circle id="_1-5" data-name="1" cx="3.203" cy="3.203" r="3.203" fill="#fff"/>
          </g>
        </g>
        <g id="Top-2" data-name="Top">
          <rect id="BG-5" data-name="BG" width="38.432" height="38.432" fill="#1f1e1c"/>
          <g id="_4-2" data-name="4" transform="translate(6.405 6.405)">
            <circle id="_4-3" data-name="4" cx="3.203" cy="3.203" r="3.203" transform="translate(19.216 19.216)" fill="#fff"/>
            <circle id="_3-2" data-name="3" cx="3.203" cy="3.203" r="3.203" transform="translate(0 19.216)" fill="#fff"/>
            <circle id="_2-3" data-name="2" cx="3.203" cy="3.203" r="3.203" transform="translate(19.216)" fill="#fff"/>
            <circle id="_1-6" data-name="1" cx="3.203" cy="3.203" r="3.203" fill="#fff"/>
          </g>
          <rect id="Shadow-2" data-name="Shadow" width="38.432" height="6.432" transform="translate(0.001 -6.184)" opacity="0.32" fill="url(#linear-gradient-2)"/>
        </g>
      </g>
    </g>
    <path id="Polygon_1" data-name="Polygon 1" d="M29.192,0,58.383,28.792H0Z" transform="translate(140.007 164.022) rotate(-90)" fill="#1f1e1c"/>
    <path id="Polygon_2" data-name="Polygon 2" d="M29.192,0,58.383,28.792H0Z" transform="translate(246.487 212) rotate(180)" fill="#1f1e1c"/>
  </g>
</svg>
